HIERARCHY
ROOT Hips
{
    OFFSET 13.837541580200195 83.58354187011719 -17.991186141967773
    CHANNELS 6 Xposition Yposition Zposition Zrotation Xrotation Yrotation
    JOINT RightUpLeg
    {
        OFFSET -13.837541580200195 0.0 0.0
        CHANNELS 3 Zrotation Xrotation Yrotation
        JOINT RightLeg
        {
            OFFSET 0.0 -38.60557556152344 0.0
            CHANNELS 3 Zrotation Xrotation Yrotation
            JOINT RightFoot
            {
                OFFSET 0.0 -44.97796630859375 0.0
                CHANNELS 3 Zrotation Xrotation Yrotation
                End Site
                {
                    OFFSET 0.0 0.0 17.991186141967773
                }
            }
        }
    }
    JOINT LeftUpLeg
    {
        OFFSET 13.837541580200195 0.0 0.0
        CHANNELS 3 Zrotation Xrotation Yrotation
        JOINT LeftLeg
        {
            OFFSET 0.0 -38.60557556152344 0.0
            CHANNELS 3 Zrotation Xrotation Yrotation
            JOINT LeftFoot
            {
                OFFSET 0.0 -44.97796630859375 0.0
                CHANNELS 3 Zrotation Xrotation Yrotation
                End Site
                {
                    OFFSET 0.0 0.0 17.991186141967773
                }
            }
        }
    }
    JOINT Spine
    {
        OFFSET 0.0 22.552520751953125 0.0
        CHANNELS 3 Zrotation Xrotation Yrotation
        JOINT Spine3
        {
            OFFSET 0.0 25.1968936920166 0.0
            CHANNELS 3 Zrotation Xrotation Yrotation
            JOINT Neck
            {
                OFFSET 0.0 10.361692428588867 0.0
                CHANNELS 3 Zrotation Xrotation Yrotation
                End Site
                {
                    OFFSET 0.0 4.14467716217041 0.0
                }
            }
            JOINT LeftArm
            {
                OFFSET 14.372716903686523 0.0 0.0
                CHANNELS 3 Zrotation Xrotation Yrotation
                JOINT LeftForeArm
                {
                    OFFSET 26.563865661621094 0.0 0.0
                    CHANNELS 3 Zrotation Xrotation Yrotation
                    JOINT LeftHand
                    {
                        OFFSET 19.370059967041016 0.0 0.0
                        CHANNELS 3 Zrotation Xrotation Yrotation
                        End Site
                        {
                            OFFSET 7.74802303314209 0.0 0.0
                        }
                    }
                }
            }
            JOINT RightArm
            {
                OFFSET -14.372716903686523 0.0 0.0
                CHANNELS 3 Zrotation Xrotation Yrotation
                JOINT RightForeArm
                {
                    OFFSET -26.563865661621094 0.0 0.0
                    CHANNELS 3 Zrotation Xrotation Yrotation
                    JOINT RightHand
                    {
                        OFFSET -19.370059967041016 0.0 0.0
                        CHANNELS 3 Zrotation Xrotation Yrotation
                        End Site
                        {
                            OFFSET -7.74802303314209 0.0 0.0
                        }
                    }
                }
            }
        }
    }
}
MOTION
Frames: 10
Frame Time: 0.03333333333333333
4.8015273932833225e-05 59.118125915527344 -0.0007513765012845397 4.866763975688567 0.4932099571256302 73.53850178890748 10.445188762281326 -65.09369506092517 6.502925845105778 132.86925789780722 70.24988801750784 -137.61300697852312 -1.5902773407317582e-15 -6.3611093629270335e-15 3.975693351829396e-15 -5.352806025387815 -56.59058863086995 -7.203657221476719 162.7092194189199 85.09961959052116 -158.0533883286955 1.5902773407317584e-15 1.590277340731758e-15 -6.361109362927033e-15 6.438393187625385 13.898158735420557 -0.7618457737233014 3.200253964845547e-08 -1.1199678263180441e-07 3.0519456760517722 -5.007591439589878 -8.033741073168096 -179.34478318557046 109.8137321778454 -17.613176173704893 -158.50080639644935 3.186189058229371e-06 1.1245441947568949e-06 60.08899853000113 2.782985346280577e-15 -6.3611093629270335e-15 -1.5902773407317582e-15 -120.47723979535913 1.8047852114726057 155.29741277315512 8.136058924731416e-07 3.0258029179414735e-06 -86.31835239141292 -1.5902773407317584e-15 6.3611093629270335e-15 3.975693351829397e-16
4.6622608351754025e-05 59.118133544921875 -0.0007524868124164641 4.867435334985391 0.5059691681045698 73.67780846920151 10.423977396338943 -65.1557126697026 6.506726935035614 132.92459774041822 70.26741941030907 -137.6582823152216 -3.1805546814635168e-15 -1.1034765745125397e-31 3.975693351829396e-15 -5.4379773271721765 -56.62936114183557 -7.260036042456522 161.89327435085713 85.03501224460456 -157.21197352005694 -4.770832022195274e-15 -2.979386751183857e-31 7.156248033292912e-15 6.445052938985274 13.82941120066822 -0.7649984996232347 -4.048821899159725e-07 -4.2128600563095786e-07 2.9880254657597614 -5.251719394182939 -8.27732101600628 -179.26291060067453 110.02349770631399 -17.65110598480794 -158.4154022849903 -2.7908690910431873e-06 -1.822296791775391e-06 60.224849191626966 2.3854160110976376e-15 6.3611093629270335e-15 -2.3854160110976376e-15 -120.60175449871801 1.815335268241027 155.29126399481953 1.3712281546251401e-06 -3.3591709388459986e-07 -86.01673360951189 4.4139062980501586e-32 6.3611093629270335e-15 -7.951386703658792e-16
7.106177508831024e-05 59.11814498901367 -0.0007416172884404659 4.887866526640639 0.5683189954211352 73.48413479216028 10.544149308851573 -65.02823396757972 6.670704026116976 132.83168891488384 70.29243395334748 -137.6542178725079 -7.951386703658792e-16 -2.758691436281349e-33 3.975693351829396e-16 -5.09462749322611 -56.53283862530917 -6.906842865459073 163.36485005041413 85.1161447100648 -158.88925191090829 1.5902773407317584e-15 3.1805546814635168e-15 3.1805546814635168e-15 6.460990218793935 13.739902686254636 -0.7800430213410037 2.484553611120933e-07 -3.8469572954617406e-07 3.025501533526404 -5.521840742146229 -8.326462765345754 -179.10818958766802 110.11214122951121 -17.736307036800156 -158.37726969071787 -3.113980761949123e-06 9.258589210479185e-06 60.537300405330576 3.975693351829396e-15 0.0 0.0 -120.51229635154552 1.903342186055084 155.21034716941935 9.712946629788868e-07 1.5428004335365556e-06 -86.48597739369914 1.5902773407317584e-15 -6.3611093629270335e-15 3.975693351829397e-16
6.482336902990937e-05 59.118133544921875 -0.0007414910360239446 5.035481054136029 0.6097497426026787 73.2705458299094 10.511406705800397 -64.90100399722613 6.638157193502865 133.1453762173682 70.3448519411744 -137.9601323721606 -3.975693351829395e-15 -7.951386703658794e-16 7.55381736847585e-15 -4.947574845363966 -56.304321787267305 -6.762025668273731 163.34235545186357 85.33782018265457 -158.91640441165484 -1.5902773407317588e-15 1.5902773407317588e-15 -6.361109362927035e-15 6.36749694333043 13.945265193276839 -0.769934225704721 -3.656396957452467e-07 -1.573764293929718e-06 3.04337112831148 -5.633422347367947 -8.266578184094836 -178.80423771347242 110.34128072928361 -17.7285143916478 -158.1487866761082 1.9994432171754144e-06 -1.9652563992506506e-06 60.943527796134546 3.975693351829395e-15 3.975693351829397e-16 4.770832022195274e-15 -120.74622616165901 1.5984988380005825 155.00042532110388 -3.557892073649431e-07 -1.6691970093109544e-06 -86.52013066333701 -1.5902773407317582e-15 6.361109362927033e-15 -5.963540027744092e-16
7.613444176968187e-05 59.11814498901367 -0.0007410082616843283 5.046496948378289 0.6561823828525575 73.3009126995086 10.451939486783994 -64.86063325813025 6.70158276051179 132.72400357029917 70.38004120780849 -137.56925736453744 -7.951386703658792e-16 5.517382872562698e-33 -7.951386703658792e-16 -4.979995215520558 -56.2655857879318 -6.675723093010125 162.235717103324 85.35242696040496 -157.8621682098533 1.590277340731758e-15 -3.1805546814635164e-15 -3.975693351829395e-15 6.376799725712209 13.92985057288551 -0.803177253991081 7.603451874301264e-07 -2.863693616331716e-08 3.0067060662548997 -5.738253906591875 -8.249167763835104 -178.69268786036656 110.26803400929417 -17.702122950799804 -158.0866856265012 4.818875364590427e-06 -3.5608486301054487e-06 60.397473340791805 1.590277340731758e-15 1.1034765745125397e-32 7.95138670365879e-16 -120.73272177602783 1.881221993314159 154.84233875116442 -2.672850370154987e-06 1.1966183947205357e-06 -86.64783546685547 0.0 0.0 -1.987846675914698e-16
9.415412205271423e-05 59.1181526184082 -0.0007363285403698683 4.930315212182129 0.6964603364468382 73.56138873896312 10.052656703239878 -65.09244275743946 6.392146044603136 132.77147993810317 70.15488637565453 -137.48225290068567 7.951386703658791e-16 -6.7586786981099735e-15 -7.951386703658791e-16 -5.518887290940939 -56.469029410220536 -7.105362289858958 161.89275635799888 85.15171766165233 -157.27951638238125 -1.5902773407317584e-15 -3.310429723537619e-32 2.3854160110976376e-15 6.420637470479354 13.636991665744468 -0.8077129327885963 -8.207630914699819e-07 7.442214808801039e-07 3.134499856804991 -5.873344474389343 -8.224344937845576 -179.07978840185547 109.8813889350853 -17.73500954965626 -158.3571398876901 1.5040837486224664e-06 -4.007687780719129e-07 59.79406152165084 5.5659706925611536e-15 -1.1586504032381667e-31 -2.385416011097637e-15 -120.71042804016349 1.9704126093968335 155.11850630558905 2.611880750415392e-06 2.7882747869594586e-06 -86.65913094178255 5.517382872562698e-32 -6.3611093629270335e-15 9.93923337957349e-16
7.940975774545223e-05 59.11815643310547 -0.0007450591656379402 4.853609701476244 0.7809333681839875 73.93640742297082 9.625933674537466 -65.11766333731934 6.05212538580334 132.42979351826307 70.13969269309482 -136.98487245798276 0.0 0.0 -7.951386703658792e-16 -5.857718712853876 -56.39288554955032 -7.340252665996866 159.45565116762123 85.38643526196662 -154.67395340963347 -1.5902773407317588e-15 -8.827812596100317e-32 6.361109362927035e-15 6.390404551389909 13.343504717479101 -0.7955536812346823 7.744072709247421e-07 2.2201495551564008e-07 3.0864507833836305 -5.991207817572462 -8.281292262480099 -179.31011625547606 109.80467390355165 -18.17598949956554 -158.54765126609195 4.455456600948074e-07 1.3535726785717153e-06 59.7866824622972 3.578124016646456e-15 -6.758678698109972e-15 2.110398948755232e-31 -120.54915083357204 2.4052924834784872 155.5174432387134 -1.109147037239905e-06 2.931827668214285e-06 -86.9342364539062 0.0 0.0 3.975693351829396e-16
7.782960165059194e-05 59.1181640625 -0.0007504464592784643 4.980824016485391 0.8691050634678853 73.93878894605496 9.482519827320175 -64.91341838382665 6.08171996681959 132.10759126556547 70.20678790078674 -136.6910873413294 7.951386703658794e-16 -3.975693351829397e-16 1.5902773407317588e-15 -6.011854280973228 -56.35170075655874 -7.309134282197721 160.67410813111877 85.28835997040122 -155.90565468679958 -3.1805546814635164e-15 -1.5902773407317584e-15 8.74652537402467e-15 6.232665996911622 13.349797668992053 -0.8027195617279321 -7.520984757449754e-07 -5.97049120912143e-07 3.0653803054604487 -6.0949749459479206 -8.493765879224092 -179.55557242759582 109.82943271663379 -18.432820719318297 -158.56607981940292 2.0073377216396168e-06 -2.1495017165137155e-06 59.69476304086236 -1.1927080055488186e-15 1.6552148617688095e-32 -1.5902773407317582e-15 -120.47418847863901 2.4355651018406594 155.47720552378067 2.338553229854067e-06 -1.277380119397355e-06 -87.39435799860905 0.0 0.0 3.975693351829396e-16
8.488923776894808e-05 59.1181526184082 -0.0007400223985314369 5.052196054257695 0.7958074283484228 73.83130672433877 9.861652434040069 -64.90236479550911 6.396506476840666 132.41410767617788 70.23479369277912 -137.1392603011881 7.951386703658792e-16 -6.7586786981099735e-15 1.1927080055488188e-15 -5.628387702888586 -56.368210089862885 -7.015689546411275 161.84634315570935 85.46628714562577 -157.2648622405077 1.5902773407317582e-15 -3.310429723537619e-32 -2.385416011097637e-15 6.242688346436034 13.344689189188262 -0.7973573184228553 -6.024796282049862e-07 2.1331948337868756e-07 3.083240360752263 -6.210375511082124 -8.663567460392304 -179.64005858003873 110.16169444991594 -18.82615788521667 -158.2216589997512 9.243003737657479e-07 -8.587884941313109e-07 60.66780329882578 -6.3611093629270335e-15 6.7586786981099735e-15 -1.590277340731758e-15 -120.48890465297261 2.3084790125183345 155.44268248040643 3.624788108148695e-06 3.2641492673875475e-06 -87.42093945007127 1.5902773407317584e-15 6.3611093629270335e-15 -8.827812596100317e-32
8.541660645278171e-05 59.1181640625 -0.0007424030918627977 5.110624140191383 0.7638279673666474 73.78532964695488 9.539109888123882 -64.87673761329171 6.129333575866384 132.5803288100475 70.13033451318788 -137.20339638696254 0.0 0.0 2.3854160110976376e-15 -5.553670082258357 -56.472996239341114 -6.936418393105362 162.41609762511146 85.45797903769753 -157.90354434284194 1.5902773407317584e-15 -3.310429723537619e-32 -2.3854160110976376e-15 6.185828423740016 13.456589883573628 -0.7975948183695059 -6.059258467240727e-07 -7.456113979885905e-08 3.0198210964042103 -6.144666063989035 -8.953167896591161 -179.83876380177648 110.197796176561 -18.692718736771216 -158.2089540111584 2.1312825013768363e-06 1.5139969383027562e-06 61.197522465148 2.3854160110976384e-15 -3.310429723537619e-32 -1.5902773407317588e-15 -120.76432222194724 1.98181648107204 155.33832232161754 -2.8138219727495167e-06 3.2765151279467237e-07 -87.60898827355214 -1.5902773407317584e-15 6.3611093629270335e-15 -7.951386703658791e-16
